<svg xmlns="http://www.w3.org/2000/svg" width="40" height="40" viewBox="0 0 40 40">
    <g fill="none" fill-rule="nonzero">
        <path fill="#4267B2" d="M37.729 0H2.219A2.22 2.22 0 0 0 0 2.222v35.556A2.22 2.22 0 0 0 2.22 40h19.119V24.533h-5.188v-6.055h5.188v-4.445c0-5.166 3.151-7.983 7.768-7.983a42.922 42.922 0 0 1 4.65.239v5.378H30.57c-2.502 0-2.99 1.194-2.99 2.944v3.856h5.987l-.777 6.055h-5.21V40h10.148a2.22 2.22 0 0 0 2.22-2.222V2.222A2.22 2.22 0 0 0 37.728 0z"/>
        <path fill="#FFF" d="M27.58 40V24.533h5.21l.778-6.055H27.58v-3.856c0-1.75.488-2.944 2.99-2.944h3.174v-5.4a42.922 42.922 0 0 0-4.65-.24c-4.605 0-7.767 2.818-7.767 7.984v4.445H16.15v6.055h5.188V40h6.242z"/>
    </g>
</svg>
