<svg xmlns="http://www.w3.org/2000/svg" width="44" height="36" viewBox="0 0 44 36">
    <path fill="#1DA1F2" fill-rule="nonzero" d="M13.71 35.862c16.267 0 25.165-13.647 25.165-25.482 0-.387 0-.773-.026-1.157a18.123 18.123 0 0 0 4.413-4.636 17.483 17.483 0 0 1-5.08 1.41 8.968 8.968 0 0 0 3.888-4.954 17.592 17.592 0 0 1-5.616 2.173 8.773 8.773 0 0 0-10.626-1.762c-3.529 1.912-5.351 5.983-4.447 9.93-7.111-.36-13.737-3.762-18.228-9.357C.806 6.12 2.005 11.354 5.892 13.982a8.696 8.696 0 0 1-4.015-1.12v.113c.001 4.263 2.97 7.935 7.096 8.779a8.724 8.724 0 0 1-3.994.154c1.159 3.648 4.48 6.147 8.263 6.219a17.607 17.607 0 0 1-13.09 3.712 24.813 24.813 0 0 0 13.558 4.016"/>
</svg>
