<svg xmlns="http://www.w3.org/2000/svg" width="47" height="33" viewBox="0 0 47 33">
    <path fill="#F00" fill-rule="nonzero" d="M6.18.759C14.385.253 20.104 0 23.336 0c3.247 0 9.163.255 17.749.766a5.846 5.846 0 0 1 5.49 5.518c.284 5.201.425 8.74.425 10.615 0 1.814-.132 4.948-.397 9.402a5.846 5.846 0 0 1-5.44 5.486c-8.641.586-14.583.88-17.827.88-3.23 0-8.98-.291-17.248-.873a5.846 5.846 0 0 1-5.426-5.48c-.179-2.97-.268-6.108-.268-9.415 0-3.548.103-7.096.31-10.644A5.846 5.846 0 0 1 6.18.759zm13.663 7.969v15.293l11.592-7.646-11.592-7.647z"/>
</svg>
