<svg xmlns="http://www.w3.org/2000/svg" xmlns:xlink="http://www.w3.org/1999/xlink" width="224" height="54" viewBox="0 0 224 54">
    <defs>
        <path id="a" d="M0 .65h51.533v35.791H0z"/>
    </defs>
    <g fill="none" fill-rule="evenodd">
        <g>
            <mask id="b" fill="#fff">
                <use xlink:href="#a"/>
            </mask>
            <path fill="#C00" d="M14.152 36.441l-2.883-2.726 14.522-1.702L32.8 36.44H14.152zm24.442-11.6L8.05 30.653l2.643 2.515 14.093-1.797c-.25-.122-.293-.246-.293-.416 0-.177.127-.334.375-.387.13 0 7.804-1.144 8.346-1.228a5.41 5.41 0 0 0 1.545-.511c.664-.303 1.077-.625 1.337-.887.207-.178.776-.806 1.206-1.271.292-.309.501-.56.66-.777.18-.207.55-.68.722-.879.034-.095 0-.176-.09-.176zm4.804-6.796L5.215 28.026l2.296 2.162 11.764-2.3c-.202-.123-.33-.207-.33-.418a.39.39 0 0 1 .33-.378l19.108-3.78c.255-.042.923-.17 1.555-.6.62-.379.955-.8 1.152-1.015.264-.298.714-.897 1.05-1.331.25-.333.462-.67.63-.921.163-.255.546-.939.746-1.236.046-.085-.04-.215-.118-.164zM38.348 6.73c.492-.2 3.042-1.31 3.581-1.608.582-.253 2.25-1.016 2.88-1.317.712-.296 2.71-1.272 3.01-1.401 1.416-.678 3.167-1.529 3.501-1.74.084-.048.247.029.207.168a29.56 29.56 0 0 1-1.042 2.888c-.247.596-.63 1.448-.955 1.998-.421.682-.837 1.142-1.17 1.432-.714.7-1.295 1.04-1.926 1.284-.374.128-1.163.467-1.707.681-.124.04-2.252.854-2.721.977L4.384 23.643c-.873.3-1.874.896-1.874 2.045 0 .511.294 1.194.875 1.734l9.512 9.019H8.463c-.071-.263-.19-.644-.361-.9-.165-.254-.25-.507-.76-.972-.366-.428-.747-.806-.872-.939l-5.003-5.103C.517 27.6 0 26.363 0 25.267c0-1.533.84-3.017 3.347-4.044L38.35 6.731zm4.127 5.15c.493-.18 1.463-.514 1.704-.598.26-.085 1.26-.468 1.428-.519.664-.294 1.333-.536 2.04-.837.079-.047.209.043.172.166a26.707 26.707 0 0 1-.67 1.362 16.97 16.97 0 0 1-.878 1.617c-.298.467-.664 1.106-.906 1.406a7.558 7.558 0 0 1-1.39 1.276c-.742.502-1.416.668-1.71.8l-27.739 7.57c-.22.041-.287.287-.287.377 0 .171.117.34.287.42l-9.852 2.593-.788-.772a1.28 1.28 0 0 1-.424-.93c0-.722.546-1.056 1.426-1.36L42.475 11.88z" mask="url(#b)"/>
        </g>
        <path fill="#C00" d="M72.673 18.312l2.578.278c1.213.138 1.213 1.101 1.213 1.785v3.184H64.53v-3.184c0-.684.14-1.647 1.354-1.785l2.586-.278v-2.633H53v2.633l2.576.278c1.084.138 1.221 1.101 1.221 1.785v10.237c0 .69-.137 1.65-1.221 1.796L53 32.674v2.63h15.47v-2.63l-2.586-.266c-1.215-.147-1.354-1.107-1.354-1.796v-3.043h11.934v3.043c0 .69 0 1.65-1.213 1.796l-2.578.266v2.63h15.475v-2.63l-2.584-.266c-1.094-.147-1.221-1.107-1.221-1.796V20.375c0-.684.127-1.647 1.221-1.785l2.584-.278v-2.633H72.673v2.633zm103.54-2.633h-19.127v2.633l2.313.278c.822.138 1.353.397 1.353 1.653v10.369c0 .69-.137 1.65-1.353 1.796l-2.573.266v2.63h19.388c6.935 0 12.628-2.76 12.628-9.806 0-7.06-5.693-9.82-12.628-9.82zm-1.349 15.9h-6.515V19.407h6.515c3.8 0 5.038 1.8 5.038 6.092 0 4.287-1.238 6.082-5.038 6.082zm46.692.824c-1.223-.142-1.633-.972-2.044-1.514l-8.948-13.97c-.688-.96-1.082-1.24-2.039-1.24h-14.647v2.633l3.372.416c.559 0 1.225.678.686 1.647l-6.654 10.926c-.264.412-.537.96-1.35 1.107l-2.583.266v2.63h12.357v-2.63l-2.041-.13c-.957-.136-1.484-.831-.957-1.517l.957-1.659h11.945l.808 1.385c.814 1.094-.117 1.65-1.072 1.65l-2.177.27v2.631H224v-2.63l-2.444-.27zm-21.85-6.636l3.664-5.929 3.924 5.929h-7.588zm-56.59-7.455l2.698.278c1.092.138 1.225 1.101 1.225 1.785v9.814l-10.168-13.677c-.55-.69-.963-.833-2.036-.833h-13.297v2.633l2.564.278c1.226.138 1.351 1.101 1.351 1.785v10.237c0 .69-.125 1.65-1.351 1.796l-2.564.266v2.63h12.34v-2.63l-2.571-.266c-1.093-.147-1.22-1.107-1.22-1.796v-9.809l10.17 13.674c.54.702.955.827 2.043.827h9.357V20.375c0-.684.136-1.647 1.363-1.785l2.578-.278v-2.633h-12.482v2.633zM104.833 15c-12.616 0-15.884 5.665-15.884 10.498 0 4.984 3.268 10.502 15.884 10.502 12.63 0 15.882-5.518 15.882-10.502 0-4.833-3.251-10.498-15.882-10.498zm0 17.261c-4.893 0-6.928-2.072-6.928-6.763 0-4.695 2.035-6.77 6.928-6.77s6.932 2.075 6.932 6.77c0 4.69-2.039 6.763-6.932 6.763z"/>
        <path fill="#535353" d="M13.038 45.846c-.32-.41-.724-.575-1.304-.575-.858 0-1.365.618-1.365 1.193 0 .497.372.663.786.774l.61.154c1.222.32 1.666.929 1.666 2.044 0 1.768-1.397 2.564-2.948 2.564-1.158 0-1.862-.3-2.483-1.084l.993-.927c.393.496.91.718 1.614.718.817 0 1.46-.497 1.46-1.139 0-.563-.311-.75-.777-.872l-.61-.165c-1.21-.321-1.676-1.062-1.676-1.868C9.004 45.161 10.09 44 11.89 44c.858 0 1.624.31 2.11.95l-.962.896zM28.054 49.214C27.7 51.164 26.514 52 25.184 52 23.968 52 23 51.141 23 49.738c0-.212.04-.513.07-.68L23.987 44h1.329l-.936 5.147c-.02.134-.05.323-.05.49 0 .547.27 1.06.945 1.06.766 0 1.289-.58 1.48-1.628L27.671 44H29l-.946 5.214zM42.765 45.303h-3.189l-.368 2.011h2.75l-.236 1.304h-2.75l-.377 2.079h3.25L41.61 52H37l1.462-8H43zM54.896 43.313c-.36 0-.603-.11-.814-.241-.212-.131-.35-.197-.56-.197-.265 0-.466.142-.656.339l-.476-.645c.391-.383.72-.569 1.174-.569.37 0 .602.11.813.241.212.131.35.186.561.186.264 0 .466-.143.656-.34l.476.657c-.381.383-.72.569-1.174.569zM55.488 52h-1.184l-1.956-4.869L51.396 52H50l1.512-7.79h1.185l1.966 4.88.941-4.88H57L55.488 52zM68.064 46.247l-1.435 3.079h1.776l-.341-3.079zM68.655 52l-.15-1.461h-2.418L65.415 52H64l3.893-8h1.053L70 52h-1.345zM79.602 52.567L78 54l.633-4H80zM104.426 52h-1.452l.67-3.394h-2.52l-.67 3.394H99l1.574-8h1.452l-.637 3.303h2.52l.638-3.303H106zM116.064 46.247l-1.435 3.079h1.776l-.341-3.079zm.591 5.753l-.15-1.461h-2.418L113.415 52H112l3.893-8h1.053L118 52h-1.345zM131.786 45.157l-3.905 5.528h2.964L130.6 52H126l.225-1.18 3.874-5.505h-2.81l.234-1.315H132zM144.753 52H140l1.534-8h1.417l-1.277 6.697H145zM156.53 45.282c-.42 0-.795.176-1.071.475-.297.32-.474.784-.76 2.243-.133.674-.232 1.27-.232 1.657 0 .696.474 1.061 1.003 1.061.42 0 .794-.177 1.07-.475.298-.321.474-.784.761-2.243.133-.674.22-1.27.22-1.658 0-.696-.462-1.06-.992-1.06M158.757 48c-.297 1.514-.507 2.409-1.202 3.104-.585.586-1.434.896-2.195.896-1.489 0-2.36-1.017-2.36-2.232 0-.354.077-.884.243-1.768.297-1.514.506-2.409 1.202-3.106a3.165 3.165 0 0 1 2.183-.894c1.49 0 2.372 1.016 2.372 2.232 0 .354-.077.884-.243 1.768M180.802 45.315h-1.226l-.409 2.213h1.226c.92 0 1.258-.775 1.258-1.303 0-.574-.296-.91-.849-.91m.502 3.281l1 3.404h-1.481l-.849-3.236h-1.021L178.349 52H177l1.462-8h2.555c1.472 0 1.983 1.022 1.983 2.146 0 .989-.563 2.033-1.696 2.45M195.765 45.303h-3.189l-.368 2.011h2.75l-.236 1.304h-2.75l-.377 2.079h3.25L194.61 52H190l1.462-8H196zM208.064 46.247l-1.435 3.079h1.776l-.341-3.079zm.591 5.753l-.15-1.461h-2.418L205.415 52H204l3.893-8h1.053L210 52h-1.345zM222.753 52H218l1.534-8h1.417l-1.277 6.697H223z"/>
    </g>
</svg>
