<svg xmlns="http://www.w3.org/2000/svg" xmlns:xlink="http://www.w3.org/1999/xlink" width="166" height="40" viewBox="0 0 166 40">
    <defs>
        <path id="a" d="M0 .482h38.19v26.511H0z"/>
    </defs>
    <g fill="none" fill-rule="evenodd">
        <g>
            <mask id="b" fill="#fff">
                <use xlink:href="#a"/>
            </mask>
            <path fill="gray" d="M10.487 26.993l-2.136-2.02 10.762-1.26 5.194 3.28h-13.82zM28.601 18.4L5.966 22.706l1.958 1.864 10.444-1.331c-.185-.09-.217-.183-.217-.308 0-.132.094-.248.278-.287.096 0 5.783-.848 6.185-.91a4.01 4.01 0 0 0 1.145-.379c.492-.224.798-.463.991-.656.153-.132.575-.597.894-.942.216-.229.37-.415.489-.575.133-.154.407-.504.534-.652.026-.07 0-.13-.066-.13zm3.56-5.034L3.865 20.76l1.701 1.601 8.718-1.703c-.15-.091-.244-.153-.244-.31 0-.095.063-.246.244-.28l14.16-2.8c.19-.031.685-.126 1.153-.445.46-.28.707-.592.853-.751.196-.22.53-.664.78-.986.184-.247.341-.496.466-.682.12-.19.404-.696.552-.916.034-.063-.029-.16-.087-.122zm-3.742-8.38c.364-.148 2.254-.97 2.653-1.191.432-.188 1.668-.753 2.135-.976.527-.22 2.008-.942 2.23-1.038C36.487 1.28 37.784.65 38.032.492c.062-.035.183.022.153.125-.153.502-.4 1.26-.772 2.14-.183.44-.466 1.072-.708 1.48-.312.504-.62.845-.866 1.06-.53.518-.96.77-1.428.951-.277.095-.862.346-1.265.505-.092.03-1.67.632-2.017.724L3.25 17.514c-.647.222-1.389.663-1.389 1.514 0 .379.218.885.648 1.285l7.05 6.68H6.271c-.053-.194-.14-.476-.268-.667-.122-.188-.185-.375-.563-.72-.272-.316-.554-.597-.646-.695l-3.708-3.78C.383 20.445 0 19.528 0 18.716c0-1.135.622-2.235 2.48-2.995L28.42 4.986zM31.477 8.8c.366-.132 1.085-.38 1.263-.442.193-.063.934-.347 1.058-.384.492-.219.988-.398 1.511-.62.06-.035.155.031.128.123-.069.159-.402.847-.496 1.008-.215.441-.433.853-.651 1.198-.22.346-.492.82-.671 1.042a5.6 5.6 0 0 1-1.03.944c-.55.372-1.05.495-1.267.593L10.765 17.87c-.164.031-.213.213-.213.28a.36.36 0 0 0 .213.311l-7.301 1.92-.584-.571a.948.948 0 0 1-.315-.69c0-.534.405-.782 1.057-1.006L31.477 8.8z" mask="url(#b)"/>
        </g>
        <path fill="gray" d="M53.856 13.564l1.91.206c.9.102.9.816.9 1.323v2.358H47.82v-2.358c0-.507.104-1.22 1.004-1.323l1.916-.206v-1.95H39.277v1.95l1.909.206c.803.102.905.816.905 1.323v7.582c0 .511-.102 1.222-.905 1.331l-1.91.197v1.948h11.465v-1.948l-1.916-.197c-.9-.109-1.004-.82-1.004-1.33v-2.254h8.845v2.253c0 .511 0 1.222-.9 1.331l-1.91.197v1.948h11.468v-1.948l-1.915-.197c-.81-.109-.905-.82-.905-1.33v-7.583c0-.507.094-1.22.905-1.323l1.915-.206v-1.95H53.856v1.95zm76.73-1.95h-14.174v1.95l1.714.206c.609.102 1.003.294 1.003 1.225v7.68c0 .511-.101 1.222-1.003 1.331l-1.907.197v1.948h14.368c5.14 0 9.359-2.044 9.359-7.264 0-5.23-4.22-7.273-9.36-7.273zm-1 11.778h-4.827v-9.017h4.828c2.816 0 3.733 1.333 3.733 4.512 0 3.176-.917 4.505-3.733 4.505zm34.603.61c-.906-.105-1.21-.72-1.515-1.121l-6.63-10.348c-.51-.711-.803-.919-1.512-.919h-10.854v1.95l2.498.308c.414 0 .908.503.509 1.22l-4.932 8.094c-.195.305-.397.711-1 .82l-1.914.197v1.948h9.158v-1.948l-1.513-.096c-.71-.1-1.1-.616-.71-1.124l.71-1.229h8.852l.599 1.026c.603.81-.087 1.222-.795 1.222l-1.613.2v1.95H166v-1.95l-1.811-.2zm-16.192-4.915l2.715-4.392 2.907 4.392h-5.622zm-41.938-5.523l2 .206c.81.102.908.816.908 1.323v7.269l-7.536-10.13c-.407-.513-.713-.618-1.508-.618h-9.855v1.95l1.9.206c.91.102 1.002.816 1.002 1.323v7.582c0 .511-.093 1.222-1.002 1.331l-1.9.197v1.948h9.145v-1.948l-1.905-.197c-.81-.109-.904-.82-.904-1.33V15.41l7.537 10.128c.4.52.707.613 1.513.613h6.934V15.093c0-.507.101-1.22 1.01-1.323l1.911-.206v-1.95h-9.25v1.95zm-28.37-2.453c-9.35 0-11.772 4.196-11.772 7.776 0 3.692 2.422 7.78 11.772 7.78 9.36 0 11.77-4.088 11.77-7.78 0-3.58-2.41-7.776-11.77-7.776zm0 12.786c-3.626 0-5.134-1.535-5.134-5.01 0-3.477 1.508-5.015 5.134-5.015 3.626 0 5.137 1.538 5.137 5.015 0 3.475-1.511 5.01-5.137 5.01zM9.662 33.96c-.238-.304-.536-.426-.966-.426-.636 0-1.012.458-1.012.884 0 .368.276.49.583.573l.452.114c.905.238 1.235.688 1.235 1.514 0 1.31-1.036 1.9-2.185 1.9-.859 0-1.38-.222-1.84-.803l.735-.687c.292.368.675.532 1.196.532.606 0 1.082-.369 1.082-.844 0-.417-.23-.556-.575-.646l-.453-.122c-.897-.238-1.242-.787-1.242-1.384 0-1.112.806-1.972 2.14-1.972.635 0 1.203.229 1.563.703l-.713.664zM20.79 36.455c-.261 1.445-1.142 2.064-2.126 2.064-.903 0-1.62-.636-1.62-1.676 0-.157.03-.38.053-.504l.679-3.746h.985l-.694 3.812c-.015.1-.037.24-.037.363 0 .405.2.785.7.785.568 0 .956-.43 1.098-1.206l.678-3.754h.985l-.701 3.862zM31.692 33.558H29.33l-.273 1.49h2.038l-.175.965h-2.037l-.28 1.54h2.409l-.175.966H27.42l1.083-5.926h3.363zM40.682 32.084c-.267 0-.447-.081-.604-.179-.157-.097-.258-.146-.415-.146-.196 0-.345.106-.486.251l-.352-.478c.29-.283.533-.42.87-.42.274 0 .446.08.602.178.157.097.26.137.416.137.196 0 .345-.106.486-.251l.353.486c-.283.284-.533.422-.87.422zm.438 6.435h-.877l-1.45-3.607-.705 3.607h-1.034l1.12-5.771h.878l1.457 3.615.698-3.615h1.034l-1.12 5.77zM50.44 34.257l-1.063 2.28h1.316l-.253-2.28zm.438 4.262l-.11-1.083h-1.793l-.497 1.083h-1.05l2.886-5.926h.78l.781 5.926h-.997zM58.99 38.939L57.805 40l.468-2.963h1.014zM77.387 38.519h-1.076l.497-2.514H74.94l-.497 2.514h-1.077l1.167-5.926h1.076l-.473 2.446h1.868l.473-2.446h1.077zM86.011 34.257l-1.063 2.28h1.316l-.253-2.28zm.439 4.262l-.111-1.083h-1.792l-.498 1.083H83l2.885-5.926h.78l.781 5.926h-.996zM97.663 33.45l-2.894 4.095h2.196l-.181.974h-3.409l.167-.875 2.87-4.078H94.33l.174-.973h3.317zM107.272 38.519h-3.522l1.137-5.926h1.05l-.947 4.96h2.465zM116 33.542c-.311 0-.59.13-.794.352-.22.237-.351.581-.563 1.661-.099.5-.172.942-.172 1.228 0 .515.351.786.743.786.311 0 .589-.131.794-.352.22-.238.35-.581.564-1.662.098-.499.163-.94.163-1.227 0-.516-.343-.786-.736-.786m1.651 2.013c-.22 1.122-.376 1.785-.89 2.3a2.362 2.362 0 0 1-1.627.664c-1.103 0-1.75-.754-1.75-1.654 0-.262.058-.654.181-1.31.22-1.121.375-1.784.89-2.3a2.346 2.346 0 0 1 1.619-.662c1.104 0 1.757.752 1.757 1.653 0 .262-.057.655-.18 1.31M133.987 33.566h-.908l-.303 1.64h.908c.682 0 .932-.574.932-.965 0-.425-.22-.675-.629-.675m.372 2.431l.742 2.522h-1.098l-.629-2.398h-.757l-.447 2.398h-1l1.083-5.926h1.894c1.09 0 1.47.757 1.47 1.59 0 .732-.418 1.506-1.258 1.814M145.076 33.558h-2.363l-.273 1.49h2.037l-.174.965h-2.037l-.28 1.54h2.408l-.174.966h-3.416l1.083-5.926h3.363zM154.19 34.257l-1.063 2.28h1.316l-.253-2.28zm.438 4.262l-.11-1.083h-1.793l-.498 1.083h-1.048l2.885-5.926h.78l.781 5.926h-.997zM165.076 38.519h-3.522l1.136-5.926h1.05l-.946 4.96h2.465z"/>
    </g>
</svg>
