<?xml version="1.0" encoding="utf-8"?>
<!-- Generator: Adobe Illustrator 24.1.2, SVG Export Plug-In . SVG Version: 6.00 Build 0)  -->
<svg version="1.1" id="Capa_1" xmlns="http://www.w3.org/2000/svg" xmlns:xlink="http://www.w3.org/1999/xlink" x="0px" y="0px"
	 viewBox="0 0 46 46" style="enable-background:new 0 0 46 46;" xml:space="preserve">
<style type="text/css">
	.st0{fill:#D43131;}
</style>
<path class="st0" d="M15,29.2h25.5c0,0,4.7-13.2,5.4-17.8c0.1-0.7,0-2.8,0-2.8h-33c-1.1-3-1.7-4-3-4.3C8.2,3.8,4.1,3.8,2.2,3.8
	c-1.5,0-2.2,3-2.2,3s8.4-0.2,8.8,0c0.5,0.4,4,11.8,4.6,15.9c0.2,1.3,0,3.5,0,5.1c-1.4,0.4-2.2,1.8-2.2,3.2c0,1.4,0.5,3.5,5.7,3.5V36
	c-1.5,0.5-2.6,1.9-2.6,3.5c0,2,1.7,3.7,3.7,3.7c2,0,3.7-1.7,3.7-3.7c0-1.6-1.1-3-2.6-3.5v-1.6h15.3v1.7c-1.4,0.5-2.3,1.9-2.3,3.4
	c0,2,1.7,3.7,3.7,3.7s3.7-1.7,3.7-3.7c0-1.5-0.9-2.8-2.3-3.4v-1.8c0,0,1,0,2.4,0c1.4,0,1.5-1.9,1.5-1.9s-25.3,0-25.9,0
	c-0.7,0-1.9-0.6-1.9-1.8C13.3,29.5,15,29.2,15,29.2z"/>
</svg>
